# xmcd
# 
# Track frame offsets:
#     183
#     32618
#     61210
#     110213
#     118000
#     148133
#     173920
#     205053
# 
# Disc length: 2872
# 
# Revision: 1
# Processed by: cddbd v1.5.2PL0 Copyright (c) Steve Scherf et al.
# Submitted via: fre:ac v1.0.27
# 
DISCID=740b3608
DTITLE=The Essence All Stars - Bongobop
DYEAR=1997
DGENRE=Jazz
TTITLE0=Uptown Blues
TTITLE1=Raoul
TTITLE2=Enchantment
TTITLE3=Bongo Bop (theme)
TTITLE4=The Lady sings the blues
TTITLE5=125th Street Congress
TTITLE6=Super Jet
TTITLE7=Bongo Bop (closing theme)
EXTD=YEAR: 1997
EXTT0=
EXTT1=
EXTT2=
EXTT3=
EXTT4=
EXTT5=
EXTT6=
EXTT7=
PLAYORDER=
